<svg xmlns="http://www.w3.org/2000/svg" width="1200" height="540" viewBox="0 0 1200 540" fill="none">
  <defs>
    <linearGradient id="g1" x1="0" y1="0" x2="1" y2="1">
      <stop offset="0%" stop-color="#dbeafe"/>
      <stop offset="100%" stop-color="#e0e7ff"/>
    </linearGradient>
    <linearGradient id="g2" x1="0" y1="0" x2="1" y2="0">
      <stop offset="0%" stop-color="#f59e0b" stop-opacity="0.55"/>
      <stop offset="100%" stop-color="#ef4444" stop-opacity="0.55"/>
    </linearGradient>
    <linearGradient id="g3" x1="0" y1="1" x2="1" y2="0">
      <stop offset="0%" stop-color="#fb923c" stop-opacity="0.45"/>
      <stop offset="100%" stop-color="#f43f5e" stop-opacity="0.45"/>
    </linearGradient>
    <pattern id="grid" width="24" height="24" patternUnits="userSpaceOnUse">
      <circle cx="1" cy="1" r="1" fill="#1f2937" opacity="0.06" />
    </pattern>
    <radialGradient id="hl" cx="0" cy="0" r="1" gradientUnits="userSpaceOnUse" gradientTransform="translate(980 120) rotate(90) scale(220)">
      <stop stop-color="#ffffff" stop-opacity="0.35"/>
      <stop offset="1" stop-color="#ffffff" stop-opacity="0"/>
    </radialGradient>
  </defs>
  <rect width="1200" height="540" fill="url(#g1)"/>
  <rect width="1200" height="540" fill="url(#grid)" opacity="0.7"/>

  <circle cx="340" cy="300" r="260" fill="url(#g2)"/>
  <circle cx="940" cy="220" r="180" fill="url(#g2)"/>
  <circle cx="640" cy="120" r="120" fill="url(#g3)"/>
  <circle cx="220" cy="120" r="100" fill="url(#g3)"/>

  <g opacity="0.18">
    <path d="M0 430 C 300 390, 900 520, 1200 470 L1200 540 L0 540 Z" fill="#1f2937"/>
  </g>
  <path d="M0 438 C 320 400, 820 520, 1200 480" stroke="#f43f5e" stroke-opacity="0.35" stroke-width="2"/>
  <path d="M0 462 C 300 420, 880 540, 1200 510" stroke="#fb923c" stroke-opacity="0.25" stroke-width="2"/>

  <circle cx="980" cy="120" r="220" fill="url(#hl)"/>
</svg>
