<svg xmlns="http://www.w3.org/2000/svg" width="1200" height="540" viewBox="0 0 1200 540" fill="none">
  <defs>
    <linearGradient id="g1" x1="0" y1="0" x2="1" y2="1">
      <stop offset="0%" stop-color="#dbeafe"/>
      <stop offset="100%" stop-color="#e0e7ff"/>
    </linearGradient>
    <linearGradient id="g2" x1="0" y1="0" x2="1" y2="0">
      <stop offset="0%" stop-color="#22d3ee" stop-opacity="0.55"/>
      <stop offset="100%" stop-color="#10b981" stop-opacity="0.55"/>
    </linearGradient>
    <linearGradient id="g3" x1="0" y1="1" x2="1" y2="0">
      <stop offset="0%" stop-color="#34d399" stop-opacity="0.45"/>
      <stop offset="100%" stop-color="#06b6d4" stop-opacity="0.45"/>
    </linearGradient>
    <pattern id="grid" width="24" height="24" patternUnits="userSpaceOnUse">
      <circle cx="1" cy="1" r="1" fill="#1f2937" opacity="0.06" />
    </pattern>
    <radialGradient id="hl" cx="0" cy="0" r="1" gradientUnits="userSpaceOnUse" gradientTransform="translate(220 120) rotate(90) scale(220)">
      <stop stop-color="#ffffff" stop-opacity="0.35"/>
      <stop offset="1" stop-color="#ffffff" stop-opacity="0"/>
    </radialGradient>
  </defs>
  <rect width="1200" height="540" fill="url(#g1)"/>
  <rect width="1200" height="540" fill="url(#grid)" opacity="0.7"/>

  <circle cx="300" cy="220" r="220" fill="url(#g2)"/>
  <circle cx="860" cy="320" r="240" fill="url(#g2)"/>
  <circle cx="620" cy="160" r="140" fill="url(#g3)"/>
  <circle cx="1040" cy="120" r="100" fill="url(#g3)"/>

  <g opacity="0.18">
    <path d="M0 440 C 250 380, 800 560, 1200 500 L1200 540 L0 540 Z" fill="#1f2937"/>
  </g>
  <path d="M0 452 C 300 410, 760 560, 1200 520" stroke="#10b981" stroke-opacity="0.35" stroke-width="2"/>
  <path d="M0 472 C 280 420, 820 560, 1200 540" stroke="#06b6d4" stroke-opacity="0.25" stroke-width="2"/>

  <circle cx="220" cy="120" r="220" fill="url(#hl)"/>
</svg>
